<svg width="72" height="72" viewBox="0 0 72 72" fill="none" xmlns="http://www.w3.org/2000/svg">
<g clip-path="url(#clip0_2128_332)">
<path fill-rule="evenodd" clip-rule="evenodd" d="M7.17527 0.196284C5.42522 0.844392 4.40485 1.73596 3.54451 3.3688C3.12754 4.16017 3.07143 4.46427 3.07091 5.93644C3.0702 7.28205 3.1446 7.76739 3.45324 8.43553C3.9112 9.42694 5.19677 10.8457 6.05588 11.3082L6.6751 11.6414V19.976V28.3107L5.98923 29.3961C5.61199 29.9931 4.87107 31.3462 4.34259 32.4034C1.61808 37.853 0.235071 43.3049 0.0424983 49.3546C-0.0454346 52.1187 -0.0171202 52.5823 0.322125 53.9249C1.06094 56.8485 2.51887 59.2808 5.01071 61.7472C10.5438 67.2239 20.1297 70.943 31.0928 71.867C34.1946 72.1283 40.9251 71.9865 43.7828 71.5994C58.2608 69.6386 68.9429 63.1206 71.5972 54.628C71.9723 53.4281 72.0084 53.0019 71.9987 49.8819C71.9869 46.0249 71.6559 43.6292 70.6048 39.7957C69.6498 36.313 67.8604 32.1821 66.1002 29.3961L65.4143 28.3107V19.976V11.6414L66.0335 11.3082C66.8926 10.8457 68.1782 9.42694 68.6362 8.43553C68.9448 7.76739 69.0192 7.28205 69.0185 5.93644C69.018 4.45636 68.9631 4.16228 68.5354 3.35016C67.8381 2.02565 67.1568 1.32568 65.9041 0.646813C64.8672 0.0848385 64.6954 0.0477484 63.128 0.0477484C61.6879 0.0477484 61.3201 0.112085 60.4628 0.513746C59.2266 1.09312 58.1148 2.2111 57.5174 3.4755C56.9078 4.76591 56.8809 7.14723 57.4613 8.43606C57.9263 9.46843 59.1171 10.7787 59.9985 11.2284L60.6659 11.5687V16.9592V22.3499L60.1823 21.9034C52.6153 14.9168 43.9581 11.5511 34.6378 11.9724C26.1688 12.3555 18.7265 15.6069 11.9071 21.9034L11.4235 22.3499V16.9592V11.5687L12.083 11.2284C12.9896 10.7606 13.9431 9.72595 14.5298 8.57317C14.9605 7.72731 15.022 7.40861 15.0226 6.02433C15.0231 4.68347 14.9526 4.29095 14.5602 3.44948C13.5685 1.32234 11.6593 0.0902874 9.22516 0.00661522C8.35779 -0.0232677 7.57167 0.0495064 7.17527 0.196284ZM20.9202 33.948C26.4558 35.5374 30.7979 36.07 37.1878 35.9438C43.0952 35.8271 46.9294 35.2604 51.8267 33.7801C52.9137 33.4514 53.8717 33.1826 53.9552 33.1826C54.1673 33.1826 55.6101 36.1358 56.2584 37.8966C56.9026 39.646 57.5485 42.1493 57.9449 44.4327C58.2843 46.3872 58.5258 50.7135 58.3362 51.443C57.5635 54.4164 47.3965 56.9097 36.0447 56.9097C24.6929 56.9097 14.5259 54.4164 13.7532 51.443C13.5636 50.7135 13.8051 46.3872 14.1445 44.4327C14.7989 40.6632 15.6717 37.8667 17.0976 34.9698C17.8635 33.4136 18.0439 33.1651 18.3568 33.235C18.5577 33.28 19.7112 33.6008 20.9202 33.948ZM23.4703 43.6424C23.0834 43.7791 22.4376 44.2383 22.035 44.6624C20.5184 46.2612 20.5548 48.3343 22.1272 49.906C23.7418 51.5198 25.8367 51.5198 27.4514 49.906C29.066 48.2921 29.066 46.1982 27.4514 44.5844C26.2887 43.4223 24.9727 43.1108 23.4703 43.6424ZM45.9811 43.6424C45.5942 43.7791 44.9484 44.2383 44.5459 44.6624C43.0292 46.2612 43.0656 48.3343 44.638 49.906C46.2527 51.5198 48.3476 51.5198 49.9622 49.906C51.5768 48.2921 51.5768 46.1982 49.9622 44.5844C48.7995 43.4223 47.4835 43.1108 45.9811 43.6424Z" fill="white"/>
</g>
<defs>
<clipPath id="clip0_2128_332">
<rect width="72" height="72" fill="white"/>
</clipPath>
</defs>
</svg>
